<svg width="40" height="40" viewBox="0 0 40 40" fill="none" xmlns="http://www.w3.org/2000/svg">
<path d="M33.75 27.6763V22.5C33.75 21.837 33.4866 21.2011 33.0178 20.7322C32.5489 20.2634 31.9131 20 31.25 20H21.25V15H23.75C24.4128 14.9993 25.0484 14.7357 25.517 14.267C25.9857 13.7983 26.2494 13.1628 26.25 12.5V5C26.2494 4.33716 25.9857 3.70166 25.517 3.23296C25.0484 2.76427 24.4128 2.50066 23.75 2.5H16.25C15.5872 2.50066 14.9517 2.76427 14.483 3.23296C14.0143 3.70166 13.7507 4.33716 13.75 5V12.5C13.7507 13.1628 14.0143 13.7983 14.483 14.267C14.9517 14.7357 15.5872 14.9993 16.25 15H18.75V20H8.75001C8.08697 20 7.45109 20.2634 6.98224 20.7322C6.5134 21.2011 6.25001 21.837 6.25001 22.5V27.6775C5.07169 27.9817 4.04478 28.7053 3.36176 29.7125C2.67874 30.7197 2.38652 31.9415 2.53986 33.1488C2.69321 34.356 3.28159 35.4659 4.19472 36.2704C5.10785 37.0749 6.28304 37.5187 7.50001 37.5187C8.71698 37.5187 9.89217 37.0749 10.8053 36.2704C11.7184 35.4659 12.3068 34.356 12.4602 33.1488C12.6135 31.9415 12.3213 30.7197 11.6383 29.7125C10.9552 28.7053 9.92834 27.9817 8.75001 27.6775V22.5H18.75V27.6775C17.5717 27.9817 16.5448 28.7053 15.8618 29.7125C15.1787 30.7197 14.8865 31.9415 15.0399 33.1488C15.1932 34.356 15.7816 35.4659 16.6947 36.2704C17.6079 37.0749 18.783 37.5187 20 37.5187C21.217 37.5187 22.3922 37.0749 23.3053 36.2704C24.2184 35.4659 24.8068 34.356 24.9602 33.1488C25.1135 31.9415 24.8213 30.7197 24.1383 29.7125C23.4552 28.7053 22.4283 27.9817 21.25 27.6775V22.5H31.25V27.6763C30.0717 27.9805 29.0448 28.704 28.3618 29.7113C27.6787 30.7185 27.3865 31.9402 27.5399 33.1475C27.6932 34.3548 28.2816 35.4647 29.1947 36.2692C30.1079 37.0736 31.283 37.5175 32.5 37.5175C33.717 37.5175 34.8922 37.0736 35.8053 36.2692C36.7184 35.4647 37.3068 34.3548 37.4602 33.1475C37.6135 31.9402 37.3213 30.7185 36.6383 29.7113C35.9552 28.704 34.9283 27.9805 33.75 27.6763V27.6763ZM16.25 5H23.75L23.7513 12.5H16.25V5ZM10 32.5C10 32.9945 9.85339 33.4778 9.57869 33.8889C9.30398 34.3 8.91354 34.6205 8.45672 34.8097C7.99991 34.9989 7.49724 35.0484 7.01229 34.952C6.52733 34.8555 6.08188 34.6174 5.73224 34.2678C5.38261 33.9181 5.14451 33.4727 5.04805 32.9877C4.95159 32.5028 5.00109 32.0001 5.19031 31.5433C5.37953 31.0865 5.69996 30.696 6.11109 30.4213C6.52221 30.1466 7.00556 30 7.50001 30C8.16285 30.0007 8.79835 30.2643 9.26705 30.733C9.73575 31.2017 9.99935 31.8372 10 32.5ZM22.5 32.5C22.5 32.9945 22.3534 33.4778 22.0787 33.8889C21.804 34.3 21.4135 34.6205 20.9567 34.8097C20.4999 34.9989 19.9972 35.0484 19.5123 34.952C19.0273 34.8555 18.5819 34.6174 18.2322 34.2678C17.8826 33.9181 17.6445 33.4727 17.548 32.9877C17.4516 32.5028 17.5011 32.0001 17.6903 31.5433C17.8795 31.0865 18.2 30.696 18.6111 30.4213C19.0222 30.1466 19.5056 30 20 30C20.6627 30.001 21.2981 30.2647 21.7667 30.7333C22.2353 31.202 22.499 31.8373 22.5 32.5ZM32.5 35C32.0056 35 31.5222 34.8534 31.1111 34.5787C30.7 34.304 30.3795 33.9135 30.1903 33.4567C30.0011 32.9999 29.9516 32.4972 30.048 32.0123C30.1445 31.5273 30.3826 31.0819 30.7322 30.7322C31.0819 30.3826 31.5273 30.1445 32.0123 30.048C32.4972 29.9516 32.9999 30.0011 33.4567 30.1903C33.9135 30.3795 34.304 30.7 34.5787 31.1111C34.8534 31.5222 35 32.0055 35 32.5C34.9994 33.1628 34.7357 33.7983 34.267 34.267C33.7984 34.7357 33.1628 34.9993 32.5 35Z" fill="#0ED797"/>
</svg>
