<svg width="40" height="40" viewBox="0 0 40 40" fill="none" xmlns="http://www.w3.org/2000/svg">
<path d="M12.5 17.5C13.8807 17.5 15 16.3807 15 15C15 13.6193 13.8807 12.5 12.5 12.5C11.1193 12.5 10 13.6193 10 15C10 16.3807 11.1193 17.5 12.5 17.5Z" fill="#0ED797"/>
<path d="M20 13.75C21.3807 13.75 22.5 12.6307 22.5 11.25C22.5 9.86929 21.3807 8.75 20 8.75C18.6193 8.75 17.5 9.86929 17.5 11.25C17.5 12.6307 18.6193 13.75 20 13.75Z" fill="#0ED797"/>
<path d="M27.5 17.5C28.8807 17.5 30 16.3807 30 15C30 13.6193 28.8807 12.5 27.5 12.5C26.1193 12.5 25 13.6193 25 15C25 16.3807 26.1193 17.5 27.5 17.5Z" fill="#0ED797"/>
<path d="M28.75 25C30.1307 25 31.25 23.8807 31.25 22.5C31.25 21.1193 30.1307 20 28.75 20C27.3693 20 26.25 21.1193 26.25 22.5C26.25 23.8807 27.3693 25 28.75 25Z" fill="#0ED797"/>
<path d="M23.75 31.25C25.1307 31.25 26.25 30.1307 26.25 28.75C26.25 27.3693 25.1307 26.25 23.75 26.25C22.3693 26.25 21.25 27.3693 21.25 28.75C21.25 30.1307 22.3693 31.25 23.75 31.25Z" fill="#0ED797"/>
<path d="M20.675 2.49999C18.3207 2.40912 15.9723 2.79457 13.7706 3.63325C11.5688 4.47193 9.55914 5.74656 7.86194 7.38072C6.16474 9.01489 4.815 10.9749 3.89363 13.1434C2.97227 15.3118 2.49825 17.6439 2.5 20C2.49994 20.9266 2.71363 21.8408 3.12444 22.6714C3.53525 23.5021 4.13211 24.2267 4.86862 24.7891C5.60513 25.3514 6.46142 25.7363 7.37092 25.9138C8.28041 26.0913 9.2186 26.0567 10.1125 25.8125L11.5125 25.425C12.0694 25.273 12.6539 25.2516 13.2205 25.3625C13.787 25.4734 14.3203 25.7136 14.7788 26.0645C15.2373 26.4153 15.6086 26.8672 15.8638 27.3851C16.119 27.9029 16.2511 28.4727 16.25 29.05V33.75C16.25 34.7446 16.6451 35.6984 17.3484 36.4016C18.0516 37.1049 19.0054 37.5 20 37.5C22.3561 37.5017 24.6882 37.0277 26.8566 36.1064C29.0251 35.185 30.9851 33.8353 32.6193 32.1381C34.2534 30.4409 35.5281 28.4312 36.3667 26.2294C37.2054 24.0277 37.5909 21.6793 37.5 19.325C37.3186 14.9208 35.4878 10.7459 32.3709 7.62906C29.2541 4.51221 25.0792 2.68136 20.675 2.49999V2.49999ZM30.8125 30.3875C29.4168 31.8488 27.7386 33.0112 25.8799 33.8041C24.0212 34.597 22.0208 35.0039 20 35C19.6685 35 19.3505 34.8683 19.1161 34.6339C18.8817 34.3995 18.75 34.0815 18.75 33.75V29.05C18.75 27.3924 18.0915 25.8027 16.9194 24.6306C15.7473 23.4585 14.1576 22.8 12.5 22.8C11.9383 22.801 11.3793 22.8766 10.8375 23.025L9.43751 23.4125C8.91461 23.5526 8.36645 23.5704 7.83556 23.4646C7.30466 23.3587 6.80528 23.132 6.37615 22.8019C5.94701 22.4719 5.59965 22.0475 5.361 21.5616C5.12235 21.0757 4.99883 20.5413 5 20C4.99845 17.9797 5.40502 15.98 6.19531 14.1207C6.98561 12.2615 8.14333 10.581 9.59904 9.18015C11.0547 7.77931 12.7784 6.68697 14.6667 5.96865C16.5549 5.25034 18.5688 4.92087 20.5875 4.99999C24.3465 5.19577 27.8997 6.77708 30.5613 9.43868C33.2229 12.1003 34.8042 15.6535 35 19.4125C35.086 21.4325 34.7591 23.4487 34.039 25.338C33.319 27.2272 32.2211 28.9497 30.8125 30.4V30.3875Z" fill="#0ED797"/>
</svg>
