<svg width="40" height="40" viewBox="0 0 40 40" fill="none" xmlns="http://www.w3.org/2000/svg">
<path d="M7.5 5V32.5H22.5V5H7.5ZM6.25 2.5H23.75C24.0815 2.5 24.3995 2.6317 24.6339 2.86612C24.8683 3.10054 25 3.41848 25 3.75V33.75C25 34.0815 24.8683 34.3995 24.6339 34.6339C24.3995 34.8683 24.0815 35 23.75 35H6.25C5.91848 35 5.60054 34.8683 5.36612 34.6339C5.1317 34.3995 5 34.0815 5 33.75V3.75C5 3.41848 5.1317 3.10054 5.36612 2.86612C5.60054 2.6317 5.91848 2.5 6.25 2.5Z" fill="#0ED797"/>
<path d="M10 10H20V12.5H10V10ZM10 17.5H20V20H10V17.5ZM10 25H20V27.5H10V25ZM25 20H30V22.5H25V20ZM25 25H30V27.5H25V25ZM2.5 32.5H37.5V35H2.5V32.5Z" fill="#0ED797"/>
<path d="M25 15V32.5H32.5V15H25ZM23.75 12.5H33.75C34.0815 12.5 34.3995 12.6317 34.6339 12.8661C34.8683 13.1005 35 13.4185 35 13.75V33.75C35 34.0815 34.8683 34.3995 34.6339 34.6339C34.3995 34.8683 34.0815 35 33.75 35H23.75C23.4185 35 23.1005 34.8683 22.8661 34.6339C22.6317 34.3995 22.5 34.0815 22.5 33.75V13.75C22.5 13.4185 22.6317 13.1005 22.8661 12.8661C23.1005 12.6317 23.4185 12.5 23.75 12.5Z" fill="#0ED797"/>
</svg>
