<svg width="70" height="67" viewBox="0 0 70 67" fill="none" xmlns="http://www.w3.org/2000/svg">
<path d="M46.7582 33.1694C46.773 29.9165 45.495 26.7909 43.2053 24.4802C40.9156 22.1695 37.8018 20.8631 34.5489 20.8482C31.2959 20.8334 28.1703 22.1114 25.8596 24.4011C23.549 26.6908 22.2425 29.8046 22.2277 33.0576C22.2129 36.3105 23.4909 39.4361 25.7806 41.7468C28.0702 44.0574 31.1841 45.3639 34.437 45.3787C37.69 45.3936 40.8156 44.1156 43.1262 41.8259C45.4369 39.5362 46.7434 36.4223 46.7582 33.1694ZM34.5265 25.7543C36.4783 25.7632 38.3466 26.5471 39.7204 27.9335C41.0942 29.3199 41.861 31.1953 41.8521 33.147C41.8432 35.0988 41.0593 36.9671 39.6729 38.3409C38.2865 39.7147 36.4112 40.4815 34.4594 40.4726C32.5076 40.4637 30.6393 39.6799 29.2655 38.2935C27.8917 36.9071 27.1249 35.0317 27.1338 33.0799C27.1427 31.1282 27.9266 29.2599 29.313 27.886C30.6994 26.5122 32.5747 25.7454 34.5265 25.7543ZM1.09814 25.2094C0.480663 27.7456 0.162165 30.3468 0.150264 32.9569C0.142349 35.5645 0.439227 38.1642 1.03486 40.7029C1.20326 41.4323 1.59332 42.0918 2.1515 42.5906C2.70969 43.0895 3.40861 43.4034 4.1523 43.4891L9.37468 44.087C9.94441 44.1449 10.4922 44.3377 10.9727 44.6492C11.4532 44.9608 11.8526 45.3823 12.138 45.8788C12.4233 46.3753 12.5864 46.9326 12.6138 47.5046C12.6411 48.0766 12.5319 48.6469 12.2952 49.1684L10.1736 53.9545C9.86829 54.6397 9.78395 55.4028 9.93226 56.1381C10.0806 56.8734 10.4542 57.5442 11.0012 58.0574C14.803 61.6184 19.3528 64.2843 24.3178 65.8601C25.036 66.0861 25.8067 66.0829 26.5229 65.851C27.2392 65.6191 27.8655 65.17 28.3149 64.5659L31.4619 60.3389C31.8016 59.8772 32.2457 59.5024 32.758 59.2452C33.2702 58.9879 33.8361 58.8556 34.4093 58.8589C34.9825 58.8623 35.5468 59.0012 36.0561 59.2643C36.5653 59.5275 37.005 59.9074 37.3394 60.373L40.4355 64.6065C40.8782 65.2181 41.5013 65.6757 42.2173 65.9152C42.9333 66.1547 43.7063 66.1641 44.4279 65.942C49.4088 64.4143 53.9836 61.7887 57.8152 58.2586C58.3659 57.7482 58.7449 57.0796 58.8998 56.3448C59.0547 55.6101 58.978 54.8454 58.6802 54.1561L56.6022 49.3729C56.3765 48.8486 56.2773 48.2786 56.3127 47.7089C56.3481 47.1392 56.517 46.5859 56.8058 46.0936C57.0946 45.6013 57.4953 45.1838 57.9753 44.875C58.4553 44.5662 59.0012 44.3746 59.569 44.3158L64.7721 43.7606C65.5254 43.6831 66.2354 43.3713 66.8023 42.8692C67.3692 42.367 67.7643 41.6998 67.9322 40.9613C68.5065 38.4449 68.8167 35.8755 68.8576 33.2947C68.8387 30.6984 68.5521 28.1109 68.0023 25.5734C67.844 24.8333 67.4568 24.1619 66.8955 23.6543C66.3342 23.1467 65.6274 22.8287 64.8752 22.7454L59.6725 22.1403C59.1045 22.0742 58.5598 21.876 58.0822 21.5616C57.6045 21.2471 57.2071 20.8252 56.9218 20.3296C56.6365 19.834 56.4712 19.2785 56.4392 18.7075C56.4071 18.1366 56.5092 17.566 56.7373 17.0416L58.8614 12.2776C59.1571 11.5901 59.2351 10.8286 59.0849 10.0955C58.9348 9.36241 58.5636 8.69289 58.0215 8.17707C54.2185 4.61165 49.666 1.94227 44.6975 0.364522C43.9798 0.139916 43.21 0.14406 42.4947 0.376379C41.7794 0.608699 41.1541 1.0577 40.7053 1.66118L37.5658 5.87846C37.2245 6.33787 36.7799 6.71058 36.2681 6.96653C35.7562 7.22247 35.1913 7.35447 34.619 7.35186C34.0467 7.34925 33.483 7.21211 32.9735 6.95151C32.464 6.69091 32.0229 6.31415 31.6858 5.85165L28.5775 1.60588C28.1333 0.996036 27.5099 0.540035 26.7942 0.3015C26.0785 0.062965 25.3061 0.0537946 24.585 0.275268C19.5991 1.80691 15.0191 4.43465 11.1805 7.96594C10.8162 8.30165 10.5257 8.70937 10.3273 9.16326C10.1288 9.61715 10.0269 10.1073 10.0278 10.6027C10.0255 11.1006 10.1263 11.5942 10.3229 12.0538L12.4082 16.8591C12.6318 17.3832 12.7294 17.9525 12.693 18.5211C12.6567 19.0898 12.4874 19.642 12.1989 20.1333C11.9103 20.6247 11.5106 21.0415 11.0317 21.3503C10.5528 21.6591 10.0081 21.8512 9.44145 21.9112L4.22365 22.4639C3.4832 22.5443 2.78554 22.851 2.22578 23.3423C1.66602 23.8336 1.27139 24.4856 1.09569 25.2094L1.09814 25.2094ZM5.614 38.7245C4.8549 34.9361 4.8727 31.033 5.66632 27.2516L9.9368 26.7927C12.0259 26.5684 13.959 25.5815 15.3659 24.0209C16.4517 22.799 17.17 21.295 17.4377 19.6825C17.7055 18.0699 17.5119 16.4145 16.8793 14.9072L15.1801 10.9598C18.1018 8.43168 21.4841 6.49136 25.1412 5.24533L27.7059 8.75024C28.4962 9.83306 29.5299 10.715 30.7236 11.3251C31.9173 11.9351 33.2377 12.2561 34.5782 12.2622C35.9187 12.2683 37.242 11.9594 38.4412 11.3603C39.6404 10.7611 40.6821 9.88862 41.4822 8.81305L44.0714 5.33901C47.7134 6.61979 51.0743 8.59077 53.9701 11.144L52.2351 15.0611C51.7525 16.1407 51.5015 17.3095 51.4983 18.492C51.4953 20.598 52.2664 22.6316 53.6649 24.2061C55.0635 25.7806 56.992 26.7861 59.0836 27.0315L63.3669 27.527C63.7262 29.4273 63.9136 31.3563 63.9293 33.287C63.8961 35.2051 63.6911 37.1176 63.3146 38.9999L59.0442 39.4367C56.9491 39.6544 55.0085 40.6389 53.5955 42.201C52.503 43.4236 51.7807 44.9317 51.5127 46.5492C51.2447 48.1668 51.4422 49.8272 52.082 51.3368L53.7812 55.2695C50.863 57.7998 47.4831 59.742 43.8274 60.9889L41.2775 57.4865C40.4899 56.3982 39.4567 55.511 38.2617 54.8973C37.0667 54.2835 35.7437 53.9604 34.4004 53.9543C33.057 53.9482 31.7311 54.2592 30.5306 54.862C29.3301 55.4649 28.2888 56.3425 27.4913 57.4237L24.8997 60.9001C21.2625 59.6188 17.9053 57.6506 15.0107 55.1025L16.7458 51.1855C17.2979 49.9598 17.5522 48.6208 17.4878 47.278C17.4234 45.9352 17.0421 44.6267 16.3751 43.4595C15.7081 42.2922 14.7744 41.2994 13.6503 40.5622C12.5261 39.8249 11.2435 39.3641 9.90713 39.2175L5.61646 38.7245L5.614 38.7245Z" fill="url(#paint0_linear_4_12)"/>
<defs>
<linearGradient id="paint0_linear_4_12" x1="68.8577" y1="33.269" x2="0.150268" y2="32.9558" gradientUnits="userSpaceOnUse">
<stop stop-color="#D13232"/>
<stop offset="1" stop-color="#3B4BD9" stop-opacity="0.72"/>
</linearGradient>
</defs>
</svg>
