<svg width="87" height="84" viewBox="0 0 87 84" fill="none" xmlns="http://www.w3.org/2000/svg">
<path d="M58.6077 41.5752C58.6263 37.4979 57.0244 33.5802 54.1545 30.684C51.2845 27.7878 47.3816 26.1502 43.3043 26.1316C39.227 26.113 35.3093 27.7149 32.413 30.5849C29.5168 33.4548 27.8793 37.3577 27.8607 41.435C27.8421 45.5124 29.444 49.4301 32.3139 52.3263C35.1838 55.2225 39.0868 56.8601 43.1641 56.8787C47.2414 56.8972 51.1591 55.2954 54.0553 52.4254C56.9516 49.5555 58.5891 45.6525 58.6077 41.5752ZM43.2762 32.281C45.7226 32.2922 48.0644 33.2747 49.7864 35.0125C51.5083 36.7502 52.4694 39.1008 52.4583 41.5472C52.4471 43.9936 51.4646 46.3353 49.7269 48.0573C47.9891 49.7793 45.6385 50.7404 43.1921 50.7292C40.7457 50.7181 38.404 49.7356 36.682 47.9978C34.96 46.2601 33.9989 43.9095 34.0101 41.4631C34.0212 39.0167 35.0037 36.6749 36.7415 34.953C38.4792 33.231 40.8299 32.2699 43.2762 32.281ZM1.37644 31.598C0.602475 34.7769 0.203263 38.0374 0.188346 41.3089C0.178425 44.5773 0.550538 47.8358 1.29711 51.0179C1.50819 51.9322 1.99711 52.7587 2.69674 53.384C3.39638 54.0093 4.27242 54.4027 5.20459 54.5102L11.7504 55.2595C12.4645 55.3322 13.1511 55.5738 13.7534 55.9643C14.3556 56.3548 14.8563 56.8831 15.214 57.5054C15.5717 58.1277 15.7761 58.8263 15.8104 59.5433C15.8447 60.2602 15.7078 60.9751 15.4111 61.6287L12.7518 67.6277C12.3691 68.4865 12.2634 69.4431 12.4493 70.3647C12.6352 71.2863 13.1035 72.1271 13.7891 72.7704C18.5544 77.2337 24.2573 80.5753 30.4805 82.5505C31.3806 82.8337 32.3466 82.8297 33.2444 82.539C34.1422 82.2484 34.9272 81.6854 35.4905 80.9283L39.435 75.63C39.8608 75.0513 40.4175 74.5815 41.0595 74.2591C41.7016 73.9367 42.4109 73.7708 43.1294 73.775C43.8478 73.7792 44.5551 73.9533 45.1934 74.2832C45.8317 74.613 46.3829 75.0892 46.8019 75.6728L50.6827 80.9791C51.2376 81.7457 52.0186 82.3193 52.9161 82.6195C53.8135 82.9197 54.7825 82.9315 55.6869 82.6531C61.9301 80.7383 67.6641 77.4473 72.4668 73.0226C73.1571 72.3828 73.6321 71.5447 73.8262 70.6238C74.0204 69.7029 73.9243 68.7444 73.551 67.8804L70.9464 61.885C70.6635 61.2279 70.5392 60.5134 70.5835 59.7994C70.6279 59.0853 70.8396 58.3917 71.2016 57.7747C71.5636 57.1576 72.0658 56.6344 72.6674 56.2473C73.2691 55.8602 73.9534 55.6201 74.665 55.5464L81.1867 54.8505C82.1309 54.7533 83.0209 54.3626 83.7314 53.7332C84.4419 53.1037 84.9372 52.2674 85.1476 51.3418C85.8675 48.1877 86.2562 44.9671 86.3076 41.7323C86.2839 38.478 85.9246 35.2348 85.2355 32.0542C85.0372 31.1266 84.5518 30.2851 83.8483 29.6488C83.1447 29.0126 82.2588 28.614 81.316 28.5096L74.7948 27.7511C74.0828 27.6683 73.4001 27.4198 72.8014 27.0257C72.2027 26.6316 71.7046 26.1028 71.347 25.4816C70.9894 24.8604 70.7822 24.1641 70.742 23.4484C70.7019 22.7328 70.8299 22.0176 71.1158 21.3603L73.7781 15.389C74.1487 14.5273 74.2465 13.5728 74.0583 12.6539C73.8701 11.7351 73.4049 10.8959 72.7253 10.2493C67.9586 5.78035 62.2524 2.43449 56.0248 0.456911C55.1252 0.175386 54.1603 0.180579 53.2638 0.471773C52.3672 0.762968 51.5834 1.32575 51.0209 2.08217L47.0857 7.3682C46.6579 7.94403 46.1008 8.4112 45.4592 8.732C44.8176 9.05281 44.1095 9.21825 43.3922 9.21498C42.6749 9.21171 41.9683 9.03982 41.3297 8.71317C40.691 8.38653 40.1382 7.9143 39.7156 7.33459L35.8196 2.01286C35.2629 1.24846 34.4815 0.676903 33.5844 0.377918C32.6873 0.0789333 31.7193 0.0674388 30.8153 0.345038C24.5659 2.26483 18.8252 5.55849 14.0139 9.98469C13.5573 10.4055 13.1931 10.9165 12.9444 11.4854C12.6957 12.0543 12.5679 12.6687 12.5691 13.2896C12.5662 13.9138 12.6925 14.5324 12.939 15.1085L15.5527 21.1316C15.833 21.7885 15.9553 22.502 15.9097 23.2148C15.8641 23.9275 15.652 24.6197 15.2903 25.2356C14.9287 25.8514 14.4276 26.3739 13.8273 26.7609C13.227 27.1479 12.5444 27.3888 11.8341 27.464L5.29401 28.1568C4.36591 28.2575 3.49145 28.642 2.78984 29.2578C2.08822 29.8736 1.59359 30.6908 1.37336 31.598L1.37644 31.598ZM7.03671 48.5381C6.08524 43.7896 6.10755 38.8974 7.10228 34.1577L12.455 33.5826C15.0736 33.3014 17.4965 32.0644 19.2599 30.1084C20.6209 28.5768 21.5212 26.6917 21.8568 24.6704C22.1925 22.6492 21.9498 20.5743 21.1569 18.685L19.0271 13.7372C22.6892 10.5685 26.9286 8.13642 31.5126 6.57462L34.7272 10.9677C35.7178 12.325 37.0134 13.4305 38.5096 14.1951C40.0058 14.9597 41.6608 15.3621 43.3411 15.3697C45.0213 15.3774 46.6799 14.9901 48.183 14.2392C49.6861 13.4882 50.9918 12.3946 51.9947 11.0465L55.24 6.69203C59.805 8.2974 64.0177 10.7679 67.6473 13.9682L65.4726 18.8779C64.8677 20.2311 64.553 21.6961 64.549 23.1783C64.5453 25.818 65.5118 28.3669 67.2648 30.3404C69.0178 32.3139 71.4349 33.5743 74.0566 33.8819L79.4254 34.5029C79.8757 36.8848 80.1107 39.3026 80.1304 41.7226C80.0887 44.1269 79.8318 46.524 79.3598 48.8833L74.0072 49.4308C71.3812 49.7036 68.9488 50.9377 67.1777 52.8956C65.8084 54.4281 64.903 56.3183 64.5671 58.3458C64.2312 60.3733 64.4787 62.4545 65.2807 64.3466L67.4105 69.276C63.7528 72.4475 59.5163 74.8818 54.9342 76.4448L51.7381 72.0548C50.751 70.6907 49.4558 69.5787 47.958 68.8094C46.4602 68.0401 44.802 67.6351 43.1182 67.6274C41.4343 67.6198 39.7725 68.0096 38.2677 68.7652C36.7629 69.5208 35.4577 70.6209 34.4582 71.976L31.2099 76.3335C26.6509 74.7274 22.4429 72.2605 18.8148 69.0667L20.9895 64.157C21.6816 62.6206 22.0003 60.9423 21.9196 59.2592C21.8388 57.5761 21.3609 55.9361 20.5249 54.473C19.6889 53.01 18.5186 51.7656 17.1095 50.8415C15.7005 49.9174 14.0928 49.3398 12.4178 49.1561L7.03979 48.5381L7.03671 48.5381Z" fill="url(#paint0_linear_4_10)"/>
<defs>
<linearGradient id="paint0_linear_4_10" x1="109.469" y1="124.5" x2="5.46934" y2="-46.5" gradientUnits="userSpaceOnUse">
<stop offset="0.214403" stop-color="#D13232"/>
<stop offset="0.873739" stop-color="#3B4BD9" stop-opacity="0.83"/>
</linearGradient>
</defs>
</svg>
