<svg width="48" height="48" viewBox="0 0 48 48" fill="none" xmlns="http://www.w3.org/2000/svg">
<path d="M28.9695 10.4535C28.137 10.4595 27.3105 10.5 26.4375 10.734C25.4865 10.9922 24.5841 11.4041 23.766 11.9535C22.617 11.2785 21.504 10.7235 20.4375 10.593C19.113 10.4295 17.883 10.518 16.4535 10.548C14.7585 10.5825 13.653 11.448 11.859 12.141C10.0665 12.831 7.758 13.5 4.5 13.5H3V27.9375L3.8445 28.359L6.609 29.7195L16.4535 40.6875L16.5 40.734C17.625 41.847 19.143 42.123 20.484 42.0465C21.8265 41.9715 23.0865 41.5785 24.093 40.9695C26.3085 39.633 32.343 35.4375 32.343 35.4375L32.484 35.343L32.5785 35.25C33.2925 34.5405 33.651 33.675 33.891 32.766L39.6555 29.859L43.968 28.407L45 28.077V13.5H43.5C40.9785 13.5173 38.4782 13.0392 36.141 12.093C34.347 11.3925 33.258 10.536 31.545 10.5C30.63 10.482 29.799 10.4475 28.968 10.4535H28.9695ZM29.0145 13.4535C29.6895 13.4475 30.4695 13.4835 31.4535 13.5C31.611 13.506 33.0525 14.121 35.0625 14.907C36.762 15.5745 39.123 16.167 42 16.359V25.9215L38.5305 27.0945H38.4375L38.343 27.1395L33.798 29.4375C33.5567 28.7414 33.1737 28.103 32.673 27.5625L32.5785 27.4215L26.2035 19.5945L25.266 18.4215L24.093 19.359L20.0625 22.641C18.7095 23.5785 17.613 23.3085 16.5 22.782C16.1775 22.629 16.1955 22.5825 15.9375 22.407L22.782 16.734L22.875 16.641C24.9075 14.625 26.157 13.9275 27.234 13.641C27.774 13.494 28.3425 13.4595 29.016 13.4535H29.0145ZM18.564 13.5C19.0645 13.4811 19.5657 13.4967 20.064 13.5465C20.457 13.593 20.9025 13.9275 21.2835 14.0625C21.1305 14.2035 21.0195 14.2845 20.8605 14.4375L20.7675 14.532L12.564 21.327L11.298 22.359L12.423 23.5305C12.423 23.5305 13.5075 24.7035 15.189 25.5C16.8705 26.2965 19.467 26.748 21.798 25.125L21.8925 25.0305L24.798 22.641L30.33 29.4375L30.3765 29.532L30.423 29.577C31.413 30.5565 31.3905 32.097 30.423 33.0945C30.411 33.105 30.435 33.129 30.423 33.1395C30.411 33.147 30.213 33.264 30.189 33.282L28.2195 30.609L25.782 32.391L27.705 34.968C26.925 35.496 26.574 35.772 25.7355 36.3285L23.721 33.609L21.282 35.391L23.205 37.968C23.034 38.073 22.683 38.3085 22.548 38.391C22.074 38.6775 21.159 39 20.3445 39.0465C19.578 39.0885 18.9915 38.9115 18.705 38.6715L18.6585 38.625L8.6265 27.516L8.439 27.2805L6 26.0625V16.359C8.865 16.1715 11.244 15.603 12.9375 14.9535C14.9415 14.1855 16.3725 13.5525 16.5465 13.5465L18.5625 13.5H18.564Z" fill="#74858D"/>
</svg>
