<svg width="126" height="88" viewBox="0 0 126 88" fill="none" xmlns="http://www.w3.org/2000/svg">
<path d="M62.8228 29.6577H52.2616M52.2616 29.6577H37.3124C32.8708 29.6577 29.3611 33.4248 29.675 37.8554V37.8554C29.959 41.864 33.2938 44.9708 37.3124 44.9708H70.4906C73.5156 44.9708 76.4243 43.8056 78.6127 41.7173V41.7173C80.9391 39.4973 82.2553 36.4218 82.2553 33.2061V13.8031C82.2553 9.98753 80.4108 6.40731 77.304 4.19235V4.19235C75.3038 2.76639 72.9086 2 70.4522 2H61.8881C60.3052 2 58.7691 2.53715 57.5311 3.52359V3.52359C54.2013 6.17676 52.2616 10.2024 52.2616 14.46V29.6577Z" stroke="#0ED797" stroke-width="3"/>
<path d="M26.0851 18.6512H38.7541C44.7972 18.6512 49.9955 22.9272 51.1611 28.8568V28.8568" stroke="#0ED797" stroke-width="3"/>
<path d="M58.1824 21.3369H67.6429C72.3893 21.3369 76.2371 25.1846 76.2371 29.931V29.931" stroke="#0ED797" stroke-width="3"/>
<path d="M41.6322 20.2626L40.1277 29.2013" stroke="#0ED797" stroke-width="3"/>
<path d="M37.0832 44.1792L35.1125 57.3249" stroke="#0ED797" stroke-width="3"/>
<path d="M53.6687 44.9708L54.6717 57.8621" stroke="#0ED797" stroke-width="3"/>
<path d="M76.2371 28.9167L79.2462 57.3249" stroke="#0ED797" stroke-width="3"/>
<path d="M66.2067 22.471L65.2036 57.8621" stroke="#0ED797" stroke-width="3"/>
<g filter="url(#filter0_d_329_23)">
<path d="M2.458 62.6586H8.74V63.8286H3.718V68.0766H7.84V69.2466H3.718V74.1066H9.1V75.2586H2.458V62.6586ZM13.6419 69.7686L14.8659 67.5006L15.3699 66.0606L16.7199 66.2586L16.1079 67.6986L14.5239 70.5426L17.1879 75.2586H15.8199L13.6599 71.2986H13.5879L11.4099 75.2586H10.0419L12.7059 70.5426L10.3299 66.2586H11.7159L13.5699 69.7686H13.6419ZM18.7487 67.7346L18.5687 66.2946L19.7927 66.1326L19.9547 67.4106L21.9887 66.2586H22.8887C23.5847 66.2586 24.1187 66.4506 24.4907 66.8346C24.8627 67.2066 25.0487 67.7346 25.0487 68.4186V73.0986C25.0487 73.7826 24.8627 74.3166 24.4907 74.7006C24.1187 75.0726 23.5847 75.2586 22.8887 75.2586H22.0247L20.0087 74.8626V79.3986H18.7487V67.7346ZM22.2767 67.4286L20.0087 68.6886V73.7106L22.0607 74.1066H22.8527C23.4767 74.1066 23.7887 73.7826 23.7887 73.1346V68.4006C23.7887 67.7526 23.4767 67.4286 22.8527 67.4286H22.2767ZM28.6923 63.3966V73.4226C28.7043 73.7226 28.7643 73.9326 28.8723 74.0526C28.9923 74.1606 29.1843 74.2146 29.4483 74.2146H29.7363L30.9063 73.8906L30.9963 75.0246L29.7363 75.3666H29.4123C28.6803 75.3666 28.1643 75.1746 27.8643 74.7906C27.5763 74.3946 27.4323 73.7946 27.4323 72.9906V63.3786L27.2343 61.9206L28.4763 61.7586L28.6923 63.3966ZM32.5827 75.2586V67.6986L32.3847 66.2586L33.6267 66.0966L33.8427 67.7166V75.2586H32.5827ZM33.3567 64.4226H33.0687C32.8767 64.4226 32.7207 64.3686 32.6007 64.2606C32.4807 64.1406 32.4207 63.9846 32.4207 63.7926V63.5046C32.4207 63.3126 32.4807 63.1566 32.6007 63.0366C32.7207 62.9166 32.8767 62.8566 33.0687 62.8566H33.3567C33.5487 62.8566 33.6987 62.9166 33.8067 63.0366C33.9267 63.1566 33.9867 63.3126 33.9867 63.5046V63.7926C33.9867 63.9846 33.9267 64.1406 33.8067 64.2606C33.6987 64.3686 33.5487 64.4226 33.3567 64.4226ZM38.3771 66.2586H40.3571L42.1391 66.7626L41.8331 67.8606L40.3571 67.4286H38.4131C37.7891 67.4286 37.4771 67.7526 37.4771 68.4006V73.1346C37.4771 73.7826 37.7891 74.1066 38.4131 74.1066H40.4471L41.9231 73.6746L42.2291 74.7726L40.4471 75.2586H38.3771C37.6691 75.2586 37.1291 75.0726 36.7571 74.7006C36.3971 74.3286 36.2171 73.7946 36.2171 73.0986V68.4186C36.2171 67.7346 36.3971 67.2066 36.7571 66.8346C37.1291 66.4506 37.6691 66.2586 38.3771 66.2586ZM43.8678 75.2586V67.6986L43.6698 66.2586L44.9118 66.0966L45.1278 67.7166V75.2586H43.8678ZM44.6418 64.4226H44.3538C44.1618 64.4226 44.0058 64.3686 43.8858 64.2606C43.7658 64.1406 43.7058 63.9846 43.7058 63.7926V63.5046C43.7058 63.3126 43.7658 63.1566 43.8858 63.0366C44.0058 62.9166 44.1618 62.8566 44.3538 62.8566H44.6418C44.8338 62.8566 44.9838 62.9166 45.0918 63.0366C45.2118 63.1566 45.2718 63.3126 45.2718 63.5046V63.7926C45.2718 63.9846 45.2118 64.1406 45.0918 64.2606C44.9838 64.3686 44.8338 64.4226 44.6418 64.4226ZM50.4723 75.3126C49.5483 75.2766 48.9363 75.0726 48.6363 74.7006C48.3483 74.3286 48.2043 73.6026 48.2043 72.5226V67.4466H46.6203V66.4386L48.2043 66.2586V65.4306L48.0783 64.4226L49.2843 64.0446L49.4643 65.4846V66.2586H51.8763V67.4466H49.4643V73.1346C49.4643 73.5786 49.5183 73.8606 49.6263 73.9806C49.7463 74.0886 49.9923 74.1426 50.3643 74.1426L51.7143 73.7826L52.0203 74.8806L50.4723 75.3126ZM57.917 62.6586H64.019V63.8286H59.177V68.0766H63.119V69.2466H59.177V75.2586H57.917V62.6586ZM65.946 67.7166L65.766 66.2946L66.99 66.1326L67.206 67.7886V73.1346C67.206 73.7826 67.518 74.1066 68.142 74.1066H68.664L70.986 72.5946V66.2586H72.246V73.8366L72.426 75.2586L71.202 75.4026L71.004 73.9806L68.988 75.2586H68.106C67.398 75.2586 66.858 75.0726 66.486 74.7006C66.126 74.3286 65.946 73.7946 65.946 73.0986V67.7166ZM78.9453 66.2586V67.5906L78.3333 67.5546L76.0653 68.5446V75.2586H74.8053V67.7526L74.6253 66.2946L75.7953 66.1326L75.9933 67.4286L78.0453 66.2586H78.9453ZM86.9589 73.8906L87.1389 75.2586L85.8969 75.4026L85.6989 73.8186V68.4006C85.6989 67.7526 85.3869 67.4286 84.7629 67.4286H84.1869L81.9189 68.6886V75.2586H80.6589V67.7526L80.4789 66.2946L81.7029 66.1326L81.8649 67.4106L83.8989 66.2586H84.7989C85.4949 66.2586 86.0289 66.4506 86.4009 66.8346C86.7729 67.2066 86.9589 67.7346 86.9589 68.4186V73.8906ZM89.5182 75.2586V67.6986L89.3202 66.2586L90.5622 66.0966L90.7782 67.7166V75.2586H89.5182ZM90.2922 64.4226H90.0042C89.8122 64.4226 89.6562 64.3686 89.5362 64.2606C89.4162 64.1406 89.3562 63.9846 89.3562 63.7926V63.5046C89.3562 63.3126 89.4162 63.1566 89.5362 63.0366C89.6562 62.9166 89.8122 62.8566 90.0042 62.8566H90.2922C90.4842 62.8566 90.6342 62.9166 90.7422 63.0366C90.8622 63.1566 90.9222 63.3126 90.9222 63.5046V63.7926C90.9222 63.9846 90.8622 64.1406 90.7422 64.2606C90.6342 64.3686 90.4842 64.4226 90.2922 64.4226ZM96.1227 75.3126C95.1987 75.2766 94.5867 75.0726 94.2867 74.7006C93.9987 74.3286 93.8547 73.6026 93.8547 72.5226V67.4466H92.2707V66.4386L93.8547 66.2586V65.4306L93.7287 64.4226L94.9347 64.0446L95.1147 65.4846V66.2586H97.5267V67.4466H95.1147V73.1346C95.1147 73.5786 95.1687 73.8606 95.2767 73.9806C95.3967 74.0886 95.6427 74.1426 96.0147 74.1426L97.3647 73.7826L97.6707 74.8806L96.1227 75.3126ZM99.2917 67.7166L99.1117 66.2946L100.336 66.1326L100.552 67.7886V73.1346C100.552 73.7826 100.864 74.1066 101.488 74.1066H102.01L104.332 72.5946V66.2586H105.592V73.8366L105.772 75.2586L104.548 75.4026L104.35 73.9806L102.334 75.2586H101.452C100.744 75.2586 100.204 75.0726 99.8317 74.7006C99.4717 74.3286 99.2917 73.7946 99.2917 73.0986V67.7166ZM112.291 66.2586V67.5906L111.679 67.5546L109.411 68.5446V75.2586H108.151V67.7526L107.971 66.2946L109.141 66.1326L109.339 67.4286L111.391 66.2586H112.291ZM115.985 75.2586C115.277 75.2586 114.737 75.0726 114.365 74.7006C114.005 74.3286 113.825 73.7946 113.825 73.0986V68.4186C113.825 67.7346 114.005 67.2066 114.365 66.8346C114.737 66.4506 115.277 66.2586 115.985 66.2586H117.695C118.403 66.2586 118.937 66.4506 119.297 66.8346C119.669 67.2066 119.855 67.7346 119.855 68.4186V70.2906L118.865 71.1726H115.085V73.1346C115.085 73.7826 115.397 74.1066 116.021 74.1066H117.911L119.369 73.6746L119.693 74.7726L117.911 75.2586H115.985ZM115.085 68.4006V70.0206H118.343L118.595 69.8226V68.4006C118.595 67.7526 118.283 67.4286 117.659 67.4286H116.021C115.397 67.4286 115.085 67.7526 115.085 68.4006Z" fill="#73726E"/>
</g>
<defs>
<filter id="filter0_d_329_23" x="0.458" y="61.7586" width="125.397" height="25.64" filterUnits="userSpaceOnUse" color-interpolation-filters="sRGB">
<feFlood flood-opacity="0" result="BackgroundImageFix"/>
<feColorMatrix in="SourceAlpha" type="matrix" values="0 0 0 0 0 0 0 0 0 0 0 0 0 0 0 0 0 0 127 0" result="hardAlpha"/>
<feOffset dx="2" dy="4"/>
<feGaussianBlur stdDeviation="2"/>
<feComposite in2="hardAlpha" operator="out"/>
<feColorMatrix type="matrix" values="0 0 0 0 0 0 0 0 0 0 0 0 0 0 0 0 0 0 0.58 0"/>
<feBlend mode="normal" in2="BackgroundImageFix" result="effect1_dropShadow_329_23"/>
<feBlend mode="normal" in="SourceGraphic" in2="effect1_dropShadow_329_23" result="shape"/>
</filter>
</defs>
</svg>
