<svg width="97" height="117" viewBox="0 0 97 117" fill="none" xmlns="http://www.w3.org/2000/svg">
<path d="M33.8462 1H8L13.3846 9H26.8462L29 33L36 25.6667L33.8462 1Z" fill="url(#paint0_radial)" stroke="url(#paint1_linear)"/>
<path d="M37 28.5L6.36854 59.1314C4.79086 60.7091 4.80891 63.2725 6.40865 64.8278L18.5925 76.6732C20.1918 78.2281 22.7539 78.1745 24.2867 76.5541L56.5 42.5L56.5 26.6656C56.5 26.0527 55.9537 25.584 55.3479 25.6772L37 28.5Z" fill="#04194F" stroke="#04194F"/>
<path d="M53 33.5C53 35.433 51.433 37 49.5 37C47.567 37 46 35.433 46 33.5C46 31.567 47.567 30 49.5 30C51.433 30 53 31.567 53 33.5Z" fill="white"/>
<circle cx="40.5" cy="82.5" r="8" fill="#04194F" stroke="#04194F"/>
<circle cx="74.5" cy="81.5" r="8" fill="#04194F" stroke="#04194F"/>
<path d="M71.68 27H59.0125V36H72.8805C75.2249 36 77.5008 36.7901 79.3409 38.2428C83.2193 41.3047 84.4156 46.6688 82.2057 51.0885L80 55.5C77.7514 57.7486 74.7312 59.0571 71.5528 59.1596L45.5 60L34 72L69.9807 71.1657C74.622 71.058 79.1077 69.4712 82.7842 66.6363C85.8715 64.2557 88.2637 61.0906 89.7116 57.471L90.6766 55.0585C94.1124 46.469 91.3569 36.6427 83.956 31.092C80.4144 28.4358 76.1069 27 71.68 27Z" fill="url(#paint2_radial)" stroke="#46FF28"/>
<path d="M15.239 109.219C15.239 110.004 15.1503 110.65 14.973 111.157C14.7957 111.664 14.5423 112.063 14.213 112.354C13.8837 112.645 13.4847 112.848 13.016 112.962C12.56 113.076 12.047 113.133 11.477 113.133C11.173 113.133 10.812 113.108 10.394 113.057C9.976 113.006 9.60233 112.937 9.273 112.848V111.461C9.56433 111.537 9.90633 111.607 10.299 111.67C10.6917 111.721 11.1477 111.746 11.667 111.746C12.3257 111.746 12.8007 111.556 13.092 111.176C13.396 110.796 13.548 110.207 13.548 109.409C13.548 108.953 13.5163 108.573 13.453 108.269C13.3897 107.952 13.2947 107.699 13.168 107.509C13.0413 107.306 12.8767 107.154 12.674 107.053C12.484 106.952 12.2623 106.876 12.009 106.825C11.477 106.711 11.0273 106.565 10.66 106.388C10.2927 106.211 9.995 105.983 9.767 105.704C9.539 105.425 9.368 105.083 9.254 104.678C9.15267 104.273 9.102 103.791 9.102 103.234C9.102 102.55 9.19067 101.98 9.368 101.524C9.558 101.055 9.81767 100.675 10.147 100.384C10.489 100.093 10.888 99.8837 11.344 99.757C11.8 99.6303 12.3003 99.567 12.845 99.567C13.1617 99.567 13.5037 99.5987 13.871 99.662C14.251 99.7127 14.5803 99.776 14.859 99.852V101.239C14.5297 101.163 14.1623 101.1 13.757 101.049C13.3517 100.986 12.9843 100.954 12.655 100.954C12.4143 100.954 12.18 100.992 11.952 101.068C11.7367 101.144 11.5403 101.264 11.363 101.429C11.1983 101.594 11.059 101.809 10.945 102.075C10.8437 102.328 10.793 102.645 10.793 103.025C10.793 103.405 10.812 103.728 10.85 103.994C10.888 104.247 10.9577 104.456 11.059 104.621C11.173 104.786 11.325 104.919 11.515 105.02C11.705 105.109 11.952 105.185 12.256 105.248C12.712 105.337 13.1237 105.463 13.491 105.628C13.8583 105.793 14.1687 106.027 14.422 106.331C14.688 106.622 14.8907 107.002 15.03 107.471C15.1693 107.94 15.239 108.522 15.239 109.219ZM19.0883 108.82C19.1009 109.441 19.1453 109.947 19.2213 110.34C19.3099 110.72 19.4239 111.018 19.5633 111.233C19.7026 111.448 19.8673 111.594 20.0573 111.67C20.2473 111.733 20.4626 111.765 20.7033 111.765C21.2353 111.765 21.7166 111.733 22.1473 111.67C22.5906 111.594 22.9579 111.524 23.2493 111.461V112.829C22.9453 112.918 22.5589 112.987 22.0903 113.038C21.6343 113.101 21.2353 113.133 20.8933 113.133C20.3486 113.133 19.8609 113.076 19.4303 112.962C19.0123 112.848 18.6576 112.62 18.3663 112.278C18.0749 111.936 17.8533 111.448 17.7013 110.815C17.5493 110.169 17.4733 109.314 17.4733 108.25C17.4733 107.376 17.5429 106.629 17.6823 106.008C17.8343 105.387 18.0559 104.881 18.3473 104.488C18.6386 104.095 18.9996 103.81 19.4303 103.633C19.8609 103.456 20.3613 103.367 20.9313 103.367C22.0206 103.367 22.7996 103.728 23.2683 104.45C23.7496 105.159 23.9903 106.141 23.9903 107.395V108.82H19.0883ZM20.8933 104.716C20.5893 104.716 20.3296 104.76 20.1143 104.849C19.8989 104.938 19.7216 105.09 19.5823 105.305C19.4429 105.52 19.3353 105.812 19.2593 106.179C19.1833 106.534 19.1326 106.983 19.1073 107.528H22.4133V107.015C22.4133 106.293 22.2993 105.729 22.0713 105.324C21.8559 104.919 21.4633 104.716 20.8933 104.716ZM31.757 112.829C31.453 112.918 31.1173 112.987 30.75 113.038C30.3826 113.101 30.028 113.133 29.686 113.133C29.1413 113.133 28.66 113.076 28.242 112.962C27.824 112.835 27.4756 112.595 27.197 112.24C26.9183 111.873 26.7093 111.36 26.57 110.701C26.4306 110.03 26.361 109.149 26.361 108.06C26.361 107.211 26.4243 106.489 26.551 105.894C26.6903 105.299 26.893 104.817 27.159 104.45C27.425 104.07 27.767 103.798 28.185 103.633C28.603 103.456 29.097 103.367 29.667 103.367C29.9836 103.367 30.3383 103.399 30.731 103.462C31.1363 103.525 31.4783 103.589 31.757 103.652V105.058C31.4023 104.982 31.0666 104.919 30.75 104.868C30.4333 104.817 30.0343 104.792 29.553 104.792C29.2743 104.792 29.04 104.849 28.85 104.963C28.66 105.077 28.5016 105.28 28.375 105.571C28.2483 105.85 28.1533 106.223 28.09 106.692C28.0393 107.148 28.014 107.731 28.014 108.44C28.014 109.149 28.0456 109.719 28.109 110.15C28.185 110.581 28.2863 110.91 28.413 111.138C28.5523 111.366 28.717 111.518 28.907 111.594C29.097 111.67 29.3123 111.708 29.553 111.708C30.0723 111.708 30.4966 111.676 30.826 111.613C31.168 111.55 31.4783 111.486 31.757 111.423V112.829ZM41.0771 108.06C41.0771 109.061 41.0011 109.89 40.8491 110.549C40.6971 111.195 40.4691 111.714 40.1651 112.107C39.8611 112.487 39.4811 112.753 39.0251 112.905C38.5817 113.057 38.0624 113.133 37.4671 113.133C36.8844 113.133 36.3651 113.057 35.9091 112.905C35.4657 112.753 35.0921 112.487 34.7881 112.107C34.4841 111.714 34.2497 111.195 34.0851 110.549C33.9331 109.89 33.8571 109.061 33.8571 108.06C33.8571 106.439 34.1484 105.254 34.7311 104.507C35.3137 103.747 36.2257 103.367 37.4671 103.367C38.7084 103.367 39.6204 103.747 40.2031 104.507C40.7857 105.254 41.0771 106.439 41.0771 108.06ZM39.4241 108.345C39.4241 107.674 39.3924 107.104 39.3291 106.635C39.2657 106.166 39.1581 105.793 39.0061 105.514C38.8667 105.223 38.6704 105.014 38.4171 104.887C38.1637 104.76 37.8471 104.697 37.4671 104.697C37.0871 104.697 36.7704 104.76 36.5171 104.887C36.2637 105.014 36.0611 105.223 35.9091 105.514C35.7697 105.793 35.6684 106.166 35.6051 106.635C35.5417 107.104 35.5101 107.674 35.5101 108.345C35.5101 109.586 35.6557 110.473 35.9471 111.005C36.2384 111.537 36.7451 111.803 37.4671 111.803C38.1891 111.803 38.6957 111.537 38.9871 111.005C39.2784 110.473 39.4241 109.586 39.4241 108.345ZM43.8276 113V103.5H45.1576L45.2906 104.355C45.9113 103.696 46.6903 103.367 47.6276 103.367C48.1723 103.367 48.6283 103.437 48.9956 103.576C49.363 103.703 49.6543 103.905 49.8696 104.184C50.0976 104.45 50.256 104.798 50.3446 105.229C50.446 105.647 50.4966 106.147 50.4966 106.73V113H48.8816V106.54C48.8816 105.945 48.7803 105.495 48.5776 105.191C48.3876 104.887 47.976 104.735 47.3426 104.735C47.0766 104.735 46.8233 104.786 46.5826 104.887C46.3546 104.988 46.152 105.121 45.9746 105.286C45.81 105.451 45.677 105.628 45.5756 105.818C45.487 105.995 45.4426 106.173 45.4426 106.35V113H43.8276ZM58.6449 113L58.5119 112.202C58.2206 112.493 57.8913 112.721 57.5239 112.886C57.1566 113.051 56.7323 113.133 56.2509 113.133C55.6429 113.133 55.1426 113.038 54.7499 112.848C54.3573 112.658 54.0406 112.379 53.7999 112.012C53.5593 111.645 53.3883 111.182 53.2869 110.625C53.1983 110.055 53.1539 109.403 53.1539 108.668C53.1539 106.793 53.4769 105.444 54.1229 104.621C54.7816 103.785 55.8393 103.367 57.2959 103.367C57.5113 103.367 57.7076 103.373 57.8849 103.386C58.0623 103.399 58.2206 103.418 58.3599 103.443V99.7H59.9749V113H58.6449ZM56.5549 111.765C56.8463 111.765 57.1059 111.714 57.3339 111.613C57.5619 111.512 57.7519 111.379 57.9039 111.214C58.0559 111.049 58.1699 110.872 58.2459 110.682C58.3219 110.492 58.3599 110.315 58.3599 110.15V104.811C58.2206 104.786 58.0496 104.767 57.8469 104.754C57.6443 104.741 57.3973 104.735 57.1059 104.735C56.6499 104.735 56.2763 104.83 55.9849 105.02C55.6936 105.197 55.4593 105.463 55.2819 105.818C55.1046 106.16 54.9779 106.591 54.9019 107.11C54.8386 107.617 54.8069 108.199 54.8069 108.858C54.8069 109.428 54.8386 109.903 54.9019 110.283C54.9779 110.65 55.0856 110.948 55.2249 111.176C55.3643 111.391 55.5416 111.543 55.7569 111.632C55.9849 111.721 56.2509 111.765 56.5549 111.765Z" fill="#30C518"/>
<path d="M70.1382 109.485C70.1382 110.764 69.8152 111.695 69.1692 112.278C68.5358 112.848 67.6745 113.133 66.5852 113.133C65.4958 113.133 64.6282 112.848 63.9822 112.278C63.3362 111.695 63.0132 110.764 63.0132 109.485V99.7H64.6662V109.846C64.6662 110.517 64.8435 111.005 65.1982 111.309C65.5528 111.6 66.0152 111.746 66.5852 111.746C67.1552 111.746 67.6112 111.6 67.9532 111.309C68.3078 111.005 68.4852 110.517 68.4852 109.846V99.7H70.1382V109.485ZM78.3491 110.245C78.3491 111.296 78.0578 112.044 77.4751 112.487C76.9051 112.918 76.1325 113.133 75.1571 113.133C74.6125 113.133 74.1501 113.095 73.7701 113.019C73.3901 112.956 73.0925 112.892 72.8771 112.829V111.442C72.9911 111.467 73.1368 111.499 73.3141 111.537C73.5041 111.562 73.7068 111.594 73.9221 111.632C74.1375 111.657 74.3591 111.683 74.5871 111.708C74.8278 111.733 75.0621 111.746 75.2901 111.746C75.5435 111.746 75.7525 111.708 75.9171 111.632C76.0945 111.543 76.2338 111.436 76.3351 111.309C76.4491 111.17 76.5315 111.018 76.5821 110.853C76.6328 110.676 76.6581 110.505 76.6581 110.34C76.6581 109.884 76.5758 109.548 76.4111 109.333C76.2591 109.118 75.9425 108.966 75.4611 108.877C74.4858 108.7 73.7955 108.396 73.3901 107.965C72.9975 107.522 72.8011 106.945 72.8011 106.236C72.8011 105.717 72.8835 105.28 73.0481 104.925C73.2128 104.558 73.4345 104.26 73.7131 104.032C74.0045 103.804 74.3401 103.639 74.7201 103.538C75.1128 103.424 75.5371 103.367 75.9931 103.367C76.4871 103.367 76.8988 103.411 77.2281 103.5C77.5701 103.576 77.8361 103.639 78.0261 103.69V105.077C77.6968 105.001 77.3801 104.925 77.0761 104.849C76.7721 104.773 76.3605 104.735 75.8411 104.735C75.5498 104.735 75.3091 104.779 75.1191 104.868C74.9418 104.944 74.8025 105.052 74.7011 105.191C74.5998 105.318 74.5301 105.463 74.4921 105.628C74.4668 105.793 74.4541 105.964 74.4541 106.141C74.4541 106.838 74.8595 107.249 75.6701 107.376C76.6581 107.541 77.3485 107.851 77.7411 108.307C78.1465 108.763 78.3491 109.409 78.3491 110.245ZM82.1557 108.82C82.1683 109.441 82.2127 109.947 82.2887 110.34C82.3773 110.72 82.4913 111.018 82.6307 111.233C82.77 111.448 82.9347 111.594 83.1247 111.67C83.3147 111.733 83.53 111.765 83.7707 111.765C84.3027 111.765 84.784 111.733 85.2147 111.67C85.658 111.594 86.0253 111.524 86.3167 111.461V112.829C86.0127 112.918 85.6263 112.987 85.1577 113.038C84.7017 113.101 84.3027 113.133 83.9607 113.133C83.416 113.133 82.9283 113.076 82.4977 112.962C82.0797 112.848 81.725 112.62 81.4337 112.278C81.1423 111.936 80.9207 111.448 80.7687 110.815C80.6167 110.169 80.5407 109.314 80.5407 108.25C80.5407 107.376 80.6103 106.629 80.7497 106.008C80.9017 105.387 81.1233 104.881 81.4147 104.488C81.706 104.095 82.067 103.81 82.4977 103.633C82.9283 103.456 83.4287 103.367 83.9987 103.367C85.088 103.367 85.867 103.728 86.3357 104.45C86.817 105.159 87.0577 106.141 87.0577 107.395V108.82H82.1557ZM83.9607 104.716C83.6567 104.716 83.397 104.76 83.1817 104.849C82.9663 104.938 82.789 105.09 82.6497 105.305C82.5103 105.52 82.4027 105.812 82.3267 106.179C82.2507 106.534 82.2 106.983 82.1747 107.528H85.4807V107.015C85.4807 106.293 85.3667 105.729 85.1387 105.324C84.9233 104.919 84.5307 104.716 83.9607 104.716ZM89.7134 113V103.5H91.0434L91.1574 104.469C91.3727 104.14 91.6387 103.874 91.9554 103.671C92.272 103.468 92.6647 103.367 93.1334 103.367C93.3614 103.367 93.5577 103.38 93.7224 103.405C93.887 103.418 94.0264 103.437 94.1404 103.462V105.153C93.9757 105.115 93.7857 105.077 93.5704 105.039C93.3677 105.001 93.1777 104.982 93.0004 104.982C92.6837 104.982 92.4177 105.045 92.2024 105.172C91.9997 105.299 91.8287 105.47 91.6894 105.685C91.5627 105.888 91.4677 106.122 91.4044 106.388C91.3537 106.641 91.3284 106.895 91.3284 107.148V113H89.7134Z" fill="#04194F"/>
<defs>
<radialGradient id="paint0_radial" cx="0" cy="0" r="1" gradientUnits="userSpaceOnUse" gradientTransform="translate(22 17) rotate(-164.055) scale(58.2409 147.422)">
<stop stop-color="#46FF28"/>
<stop offset="0.819575" stop-color="#113C0A" stop-opacity="0.68"/>
</radialGradient>
<linearGradient id="paint1_linear" x1="22" y1="1" x2="22" y2="33" gradientUnits="userSpaceOnUse">
<stop stop-color="#46FF28"/>
<stop offset="0.979167" stop-color="#1F950C" stop-opacity="0.68"/>
</linearGradient>
<radialGradient id="paint2_radial" cx="0" cy="0" r="1" gradientUnits="userSpaceOnUse" gradientTransform="translate(52.5 2.5) rotate(53.7283) scale(86.2047 119.729)">
<stop offset="0.35455" stop-color="#46FF28"/>
<stop offset="0.957948" stop-color="#1F950C" stop-opacity="0.68"/>
</radialGradient>
</defs>
</svg>
