<svg width="40" height="40" viewBox="0 0 40 40" fill="none" xmlns="http://www.w3.org/2000/svg">
<path d="M20 26.6667C22.785 26.6667 25 24.4483 25 21.6667C25 18.885 22.785 16.6667 20 16.6667C17.215 16.6667 15 18.885 15 21.6667C15 24.4483 17.215 26.6667 20 26.6667Z" fill="#0ED797"/>
<path d="M34.695 18.6433C34.3023 16.7239 33.5348 14.9008 32.4367 13.2783C31.3576 11.6821 29.9829 10.3074 28.3867 9.22834C26.764 8.13055 24.941 7.36317 23.0217 6.97001C22.0135 6.76556 20.987 6.66503 19.9583 6.67001V3.33334L13.3333 8.33334L19.9583 13.3333V10.0033C20.765 10 21.5717 10.0767 22.35 10.2367C23.8417 10.5424 25.2586 11.1387 26.52 11.9917C27.764 12.8304 28.8346 13.9011 29.6733 15.145C30.9755 17.0704 31.6699 19.3423 31.6667 21.6667C31.6664 23.2265 31.3547 24.7705 30.75 26.2083C30.4559 26.9009 30.0965 27.5639 29.6767 28.1883C29.2552 28.809 28.7764 29.3888 28.2467 29.92C26.6333 31.5303 24.5852 32.6349 22.3533 33.0983C20.8012 33.4117 19.2021 33.4117 17.65 33.0983C16.1576 32.7924 14.7401 32.1954 13.4783 31.3417C12.2358 30.5037 11.1663 29.4342 10.3283 28.1917C9.02759 26.2643 8.33284 23.9919 8.33333 21.6667H5C5.00177 24.6562 5.89481 27.5773 7.565 30.0567C8.64475 31.6502 10.0181 33.0236 11.6117 34.1033C14.0877 35.7791 17.0102 36.6722 20 36.6667C21.0155 36.6666 22.0283 36.5644 23.0233 36.3617C24.9412 35.9657 26.7632 35.1985 28.3867 34.1033C29.1838 33.5662 29.9267 32.9528 30.605 32.2717C31.2842 31.5906 31.898 30.8474 32.4383 30.0517C34.1127 27.5763 35.0051 24.6552 35 21.6667C34.9999 20.6512 34.8977 19.6384 34.695 18.6433V18.6433Z" fill="#0ED797"/>
</svg>
