<svg width="40" height="40" viewBox="0 0 40 40" fill="none" xmlns="http://www.w3.org/2000/svg">
<path d="M38.6666 38.6666L28 28L38.6666 38.6666ZM17.3333 33.3333C15.2322 33.3333 13.1516 32.9195 11.2104 32.1154C9.26917 31.3113 7.50534 30.1328 6.0196 28.647C4.53387 27.1613 3.35532 25.3975 2.55124 23.4562C1.74717 21.515 1.33331 19.4345 1.33331 17.3333C1.33331 15.2322 1.74717 13.1516 2.55124 11.2104C3.35532 9.26917 4.53387 7.50534 6.0196 6.0196C7.50534 4.53387 9.26917 3.35532 11.2104 2.55124C13.1516 1.74717 15.2322 1.33331 17.3333 1.33331C21.5768 1.33331 25.6464 3.01902 28.647 6.0196C31.6476 9.02019 33.3333 13.0898 33.3333 17.3333C33.3333 21.5768 31.6476 25.6464 28.647 28.647C25.6464 31.6476 21.5768 33.3333 17.3333 33.3333Z" stroke="#0ED797" stroke-width="2.66667"/>
</svg>
