<svg width="48" height="48" viewBox="0 0 48 48" fill="none" xmlns="http://www.w3.org/2000/svg">
<path d="M24 33C22.22 33 20.4799 32.4722 18.9999 31.4832C17.5198 30.4943 16.3663 29.0887 15.6851 27.4442C15.0039 25.7996 14.8257 23.99 15.1729 22.2442C15.5202 20.4984 16.3774 18.8947 17.636 17.636C18.8947 16.3774 20.4984 15.5202 22.2442 15.1729C23.99 14.8257 25.7996 15.0039 27.4442 15.6851C29.0887 16.3663 30.4943 17.5198 31.4832 18.9999C32.4722 20.4799 33 22.22 33 24C33.0129 25.1855 32.7888 26.3616 32.3411 27.4593C31.8934 28.557 31.2309 29.5543 30.3926 30.3926C29.5543 31.2309 28.557 31.8934 27.4593 32.3411C26.3616 32.7888 25.1855 33.0129 24 33V33ZM24 18C23.2071 17.982 22.4188 18.1248 21.6827 18.42C20.9466 18.7151 20.278 19.1564 19.7172 19.7172C19.1564 20.278 18.7151 20.9466 18.42 21.6827C18.1248 22.4188 17.982 23.2071 18 24C17.982 24.7929 18.1248 25.5812 18.42 26.3173C18.7151 27.0534 19.1564 27.722 19.7172 28.2828C20.278 28.8436 20.9466 29.2849 21.6827 29.58C22.4188 29.8752 23.2071 30.018 24 30C24.7929 30.018 25.5812 29.8752 26.3173 29.58C27.0534 29.2849 27.722 28.8436 28.2828 28.2828C28.8436 27.722 29.2849 27.0534 29.58 26.3173C29.8752 25.5812 30.018 24.7929 30 24C30.018 23.2071 29.8752 22.4188 29.58 21.6827C29.2849 20.9466 28.8436 20.278 28.2828 19.7172C27.722 19.1564 27.0534 18.7151 26.3173 18.42C25.5812 18.1248 24.7929 17.982 24 18V18Z" fill="#74858D"/>
<path d="M43.9575 16.566L40.4175 10.434C40.071 9.83277 39.5265 9.37043 38.8771 9.12587C38.2277 8.88131 37.5135 8.86969 36.8565 9.093L33.2055 10.3275C32.5763 9.90388 31.9188 9.52399 31.2375 9.1905L30.483 5.412C30.347 4.73166 29.9794 4.11949 29.4428 3.67971C28.9062 3.23993 28.2338 2.99973 27.54 3H20.46C19.7662 2.99973 19.0938 3.23993 18.5572 3.67971C18.0206 4.11949 17.653 4.73166 17.517 5.412L16.7625 9.1905C16.0736 9.52033 15.4085 9.89775 14.772 10.32L11.142 9.093C10.4854 8.87047 9.77188 8.88249 9.12311 9.12701C8.47434 9.37153 7.93042 9.83343 7.584 10.434L4.044 16.566C3.69722 17.1664 3.56913 17.8685 3.68153 18.5527C3.79392 19.2369 4.13986 19.8611 4.6605 20.319L7.557 22.8645C7.5315 23.2425 7.5 23.6175 7.5 24C7.5 24.387 7.515 24.7695 7.542 25.149L4.662 27.681C4.14087 28.1386 3.79436 28.7625 3.68142 29.4468C3.56847 30.131 3.69607 30.8332 4.0425 31.434L7.5825 37.566C7.9288 38.1675 8.47313 38.6302 9.12257 38.875C9.77201 39.1198 10.4863 39.1317 11.1435 38.9085L14.7945 37.6725C15.4235 38.0969 16.081 38.4773 16.7625 38.811L17.517 42.588C17.653 43.2683 18.0206 43.8805 18.5572 44.3203C19.0938 44.7601 19.7662 45.0003 20.46 45H27V42H20.46L19.395 36.675C17.9217 36.1277 16.5541 35.33 15.3525 34.317L10.182 36.066L6.642 29.934L10.7295 26.3415C10.4499 24.7903 10.4463 23.2019 10.719 21.6495L6.642 18.066L10.182 11.934L15.3225 13.674C16.5327 12.6596 17.911 11.8646 19.395 11.325L20.46 6H27.54L28.605 11.325C30.0782 11.8724 31.4458 12.6701 32.6475 13.683L37.818 11.934L41.358 18.066L37.161 21.744L39.138 24L43.338 20.319C43.8591 19.8614 44.2056 19.2375 44.3186 18.5532C44.4315 17.869 44.3039 17.1668 43.9575 16.566V16.566Z" fill="#74858D"/>
<path d="M34.5 39.27L30.615 35.385L28.5 37.5L34.5 43.5L45 33L42.885 30.885L34.5 39.27Z" fill="#74858D"/>
</svg>
