<svg width="40" height="40" viewBox="0 0 40 40" fill="none" xmlns="http://www.w3.org/2000/svg">
<path d="M36.0781 26.875C36.2429 27.1612 36.2877 27.5009 36.2028 27.82C36.1179 28.1391 35.9102 28.4116 35.625 28.5781L20.625 37.3281C20.4361 37.441 20.2201 37.5006 20 37.5006C19.7799 37.5006 19.5639 37.441 19.375 37.3281L4.375 28.5781C4.11595 28.3996 3.93376 28.1299 3.86481 27.8229C3.79585 27.5159 3.84519 27.1942 4.00299 26.922C4.16079 26.6498 4.41543 26.4471 4.71609 26.3544C5.01675 26.2617 5.34131 26.2858 5.625 26.4219L20 34.7969L34.375 26.4219C34.6612 26.2571 35.0009 26.2123 35.32 26.2972C35.6391 26.3821 35.9116 26.5898 36.0781 26.875ZM34.375 18.9219L20 27.2969L5.625 18.9219C5.34131 18.7858 5.01675 18.7617 4.71609 18.8544C4.41543 18.9471 4.16079 19.1498 4.00299 19.422C3.84519 19.6942 3.79585 20.0159 3.86481 20.3229C3.93376 20.6299 4.11595 20.8996 4.375 21.0781L19.375 29.8281C19.5639 29.941 19.7799 30.0006 20 30.0006C20.2201 30.0006 20.4361 29.941 20.625 29.8281L35.625 21.0781C35.7804 21.0036 35.9187 20.8977 36.0313 20.7671C36.1438 20.6365 36.2281 20.4841 36.2789 20.3194C36.3297 20.1547 36.3459 19.9812 36.3264 19.8099C36.307 19.6387 36.2523 19.4733 36.1658 19.3241C36.0794 19.175 35.963 19.0454 35.8241 18.9434C35.6851 18.8414 35.5266 18.7692 35.3584 18.7314C35.1902 18.6937 35.016 18.6911 34.8468 18.7239C34.6775 18.7566 34.5169 18.824 34.375 18.9219ZM4.375 13.5781L19.375 22.3281C19.5639 22.441 19.7799 22.5006 20 22.5006C20.2201 22.5006 20.4361 22.441 20.625 22.3281L35.625 13.5781C35.813 13.4678 35.9688 13.3103 36.0771 13.1212C36.1854 12.9321 36.2424 12.7179 36.2424 12.5C36.2424 12.2821 36.1854 12.0679 36.0771 11.8788C35.9688 11.6897 35.813 11.5322 35.625 11.4219L20.625 2.67187C20.4366 2.55736 20.2204 2.4968 20 2.4968C19.7796 2.4968 19.5634 2.55736 19.375 2.67187L4.375 11.4219C4.18703 11.5322 4.03116 11.6897 3.92285 11.8788C3.81455 12.0679 3.75757 12.2821 3.75757 12.5C3.75757 12.7179 3.81455 12.9321 3.92285 13.1212C4.03116 13.3103 4.18703 13.4678 4.375 13.5781V13.5781Z" fill="#0ED797"/>
</svg>
