<svg width="40" height="40" viewBox="0 0 40 40" fill="none" xmlns="http://www.w3.org/2000/svg">
<g clip-path="url(#clip0_20_14)">
<path d="M35 25C35.663 25 36.2989 25.2634 36.7678 25.7322C37.2366 26.2011 37.5 26.837 37.5 27.5V30C37.5 30.663 37.2366 31.2989 36.7678 31.7678C36.2989 32.2366 35.663 32.5 35 32.5H5C4.33696 32.5 3.70107 32.2366 3.23223 31.7678C2.76339 31.2989 2.5 30.663 2.5 30V27.5C2.5 26.837 2.76339 26.2011 3.23223 25.7322C3.70107 25.2634 4.33696 25 5 25H35ZM5 22.5C3.67392 22.5 2.40215 23.0268 1.46447 23.9645C0.526784 24.9021 0 26.1739 0 27.5L0 30C0 31.3261 0.526784 32.5979 1.46447 33.5355C2.40215 34.4732 3.67392 35 5 35H35C36.3261 35 37.5979 34.4732 38.5355 33.5355C39.4732 32.5979 40 31.3261 40 30V27.5C40 26.1739 39.4732 24.9021 38.5355 23.9645C37.5979 23.0268 36.3261 22.5 35 22.5H5Z" fill="#0ED797"/>
<path d="M12.5 28.75C12.5 29.0815 12.3683 29.3995 12.1339 29.6339C11.8995 29.8683 11.5815 30 11.25 30C10.9185 30 10.6005 29.8683 10.3661 29.6339C10.1317 29.3995 10 29.0815 10 28.75C10 28.4185 10.1317 28.1005 10.3661 27.8661C10.6005 27.6317 10.9185 27.5 11.25 27.5C11.5815 27.5 11.8995 27.6317 12.1339 27.8661C12.3683 28.1005 12.5 28.4185 12.5 28.75ZM7.5 28.75C7.5 29.0815 7.3683 29.3995 7.13388 29.6339C6.89946 29.8683 6.58152 30 6.25 30C5.91848 30 5.60054 29.8683 5.36612 29.6339C5.1317 29.3995 5 29.0815 5 28.75C5 28.4185 5.1317 28.1005 5.36612 27.8661C5.60054 27.6317 5.91848 27.5 6.25 27.5C6.58152 27.5 6.89946 27.6317 7.13388 27.8661C7.3683 28.1005 7.5 28.4185 7.5 28.75V28.75ZM35 7.5C35.663 7.5 36.2989 7.76339 36.7678 8.23223C37.2366 8.70107 37.5 9.33696 37.5 10V12.5C37.5 13.163 37.2366 13.7989 36.7678 14.2678C36.2989 14.7366 35.663 15 35 15H5C4.33696 15 3.70107 14.7366 3.23223 14.2678C2.76339 13.7989 2.5 13.163 2.5 12.5V10C2.5 9.33696 2.76339 8.70107 3.23223 8.23223C3.70107 7.76339 4.33696 7.5 5 7.5H35ZM5 5C3.67392 5 2.40215 5.52678 1.46447 6.46447C0.526784 7.40215 0 8.67392 0 10L0 12.5C0 13.8261 0.526784 15.0979 1.46447 16.0355C2.40215 16.9732 3.67392 17.5 5 17.5H35C36.3261 17.5 37.5979 16.9732 38.5355 16.0355C39.4732 15.0979 40 13.8261 40 12.5V10C40 8.67392 39.4732 7.40215 38.5355 6.46447C37.5979 5.52678 36.3261 5 35 5H5Z" fill="#0ED797"/>
<path d="M12.5 11.25C12.5 11.5815 12.3683 11.8995 12.1339 12.1339C11.8995 12.3683 11.5815 12.5 11.25 12.5C10.9185 12.5 10.6005 12.3683 10.3661 12.1339C10.1317 11.8995 10 11.5815 10 11.25C10 10.9185 10.1317 10.6005 10.3661 10.3661C10.6005 10.1317 10.9185 10 11.25 10C11.5815 10 11.8995 10.1317 12.1339 10.3661C12.3683 10.6005 12.5 10.9185 12.5 11.25V11.25ZM7.5 11.25C7.5 11.5815 7.3683 11.8995 7.13388 12.1339C6.89946 12.3683 6.58152 12.5 6.25 12.5C5.91848 12.5 5.60054 12.3683 5.36612 12.1339C5.1317 11.8995 5 11.5815 5 11.25C5 10.9185 5.1317 10.6005 5.36612 10.3661C5.60054 10.1317 5.91848 10 6.25 10C6.58152 10 6.89946 10.1317 7.13388 10.3661C7.3683 10.6005 7.5 10.9185 7.5 11.25V11.25Z" fill="#0ED797"/>
</g>
<defs>
<clipPath id="clip0_20_14">
<rect width="40" height="40" fill="white"/>
</clipPath>
</defs>
</svg>
