<svg width="48" height="48" viewBox="0 0 48 48" fill="none" xmlns="http://www.w3.org/2000/svg">
<path d="M47.6933 10.88C47.5912 10.2311 47.2942 9.62858 46.8417 9.15233C46.3893 8.67609 45.8028 8.34861 45.16 8.21333L37.3333 6.49333C36.494 6.31028 35.6252 6.30959 34.7856 6.49131C33.946 6.67304 33.1552 7.03293 32.4667 7.54666L9.33332 24.4L2.85332 24.1333C2.33241 24.1147 1.81886 24.2606 1.38563 24.5505C0.95239 24.8403 0.621489 25.2593 0.439924 25.7479C0.258358 26.2365 0.23536 26.7699 0.374196 27.2723C0.513031 27.7747 0.806641 28.2206 1.21332 28.5467L7.87999 33.7867C8.67999 34.76 9.21332 34.5733 22.4533 27.36L23.6933 39.92C23.714 40.2626 23.8314 40.5924 24.032 40.8709C24.2327 41.1494 24.5082 41.3652 24.8267 41.4933C25.0558 41.5839 25.3003 41.6292 25.5467 41.6267C26.0425 41.6115 26.5162 41.4173 26.88 41.08L30.0667 38.1733C30.384 37.8793 30.5989 37.4916 30.68 37.0667L33.6 21.2C38.36 18.5333 42.8667 16.0267 46.08 14.2C46.6549 13.8766 47.1174 13.3855 47.4057 12.7922C47.694 12.1989 47.7943 11.5318 47.6933 10.88V10.88ZM44.76 11.88C41.4267 13.7733 36.76 16.4267 31.7467 19.1733L31.2 19.48L28.0933 36.3733L26.1333 38.16L24.6667 23.0933L22.8933 24C13.3333 29.3333 10.1467 30.88 9.05332 31.36L3.31999 26.8133L10.0933 27.1067L34.0933 9.69333C34.4706 9.4113 34.9031 9.21207 35.3626 9.10868C35.8221 9.00528 36.2983 9.00005 36.76 9.09333L44.56 10.7733C44.6802 10.7951 44.7903 10.8547 44.8742 10.9435C44.9582 11.0322 45.0116 11.1454 45.0267 11.2667C45.0541 11.384 45.043 11.507 44.9949 11.6175C44.9469 11.728 44.8645 11.8201 44.76 11.88V11.88Z" fill="#74858D"/>
<path d="M9.33333 16.72L14.08 18.0533L16.2667 16.4667L10.9333 14.92L13.3333 13.4533L20.6267 13.24L23.6933 11.0133L13.3333 11.3333C13.0067 11.3157 12.6821 11.3945 12.4 11.56L8.89333 13.6C8.60342 13.7717 8.37084 14.0255 8.2249 14.3292C8.07896 14.6329 8.02619 14.973 8.07324 15.3067C8.1203 15.6403 8.26507 15.9526 8.48931 16.2041C8.71355 16.4556 9.00723 16.6351 9.33333 16.72V16.72Z" fill="#74858D"/>
</svg>
