<svg width="60" height="60" viewBox="0 0 60 60" fill="none" xmlns="http://www.w3.org/2000/svg">
<path d="M1.875 18.75H26.25L28.125 22.5H3.75L1.875 18.75ZM4.375 26.25H28.75L30.625 30H6.25L4.375 26.25ZM45 46.25C47.075 46.25 48.75 44.575 48.75 42.5C48.75 40.425 47.075 38.75 45 38.75C42.925 38.75 41.25 40.425 41.25 42.5C41.25 44.575 42.925 46.25 45 46.25ZM48.75 23.75H42.5V30H53.65L48.75 23.75ZM20 46.25C22.075 46.25 23.75 44.575 23.75 42.5C23.75 40.425 22.075 38.75 20 38.75C17.925 38.75 16.25 40.425 16.25 42.5C16.25 44.575 17.925 46.25 20 46.25ZM50 20L57.5 30V42.5H52.5C52.5 46.65 49.15 50 45 50C40.85 50 37.5 46.65 37.5 42.5H27.5C27.5 46.65 24.125 50 20 50C15.85 50 12.5 46.65 12.5 42.5H7.5V33.75H12.5V37.5H14.4C15.775 35.975 17.775 35 20 35C22.225 35 24.225 35.975 25.6 37.5H37.5V15H7.5C7.5 12.225 9.725 10 12.5 10H42.5V20H50Z" fill="black"/>
</svg>
